<svg xmlns="http://www.w3.org/2000/svg" width="360" height="280" viewBox="0 0 360 280">
  <polygon points="74,108 102,62 132,110" fill="#57bf65"/>
  <polygon points="52,142 80,96 110,144" fill="#57bf65"/>
  <polygon points="40,178 68,132 98,180" fill="#57bf65"/>
  <ellipse cx="156" cy="168" rx="120" ry="86" fill="#6fd972"/>
  <ellipse cx="166" cy="182" rx="60" ry="44" fill="#baf3aa"/>
  <ellipse cx="224" cy="120" rx="82" ry="68" fill="#84ea86"/>
  <ellipse cx="208" cy="98" rx="16" ry="14" fill="#ffffff"/>
  <ellipse cx="252" cy="102" rx="16" ry="14" fill="#ffffff"/>
  <ellipse cx="210" cy="100" rx="8" ry="3" fill="#1b4634"/>
  <ellipse cx="254" cy="104" rx="8" ry="3" fill="#1b4634"/>
  <circle cx="194" cy="130" r="9" fill="#ffa8be" opacity="0.62"/>
  <circle cx="266" cy="136" r="9" fill="#ffa8be" opacity="0.62"/>
  <ellipse cx="206" cy="150" rx="22" ry="8" fill="#1c4d2f"/>
  <ellipse cx="232" cy="184" rx="14" ry="24" fill="#6fd972"/>
</svg>
