<svg xmlns="http://www.w3.org/2000/svg" width="360" height="280" viewBox="0 0 360 280">
  <polygon points="74,110 102,64 132,112" fill="#57bf65"/>
  <polygon points="52,144 80,98 110,146" fill="#57bf65"/>
  <polygon points="40,180 68,134 98,182" fill="#57bf65"/>
  <ellipse cx="156" cy="170" rx="120" ry="86" fill="#6fd972"/>
  <ellipse cx="166" cy="184" rx="60" ry="44" fill="#baf3aa"/>
  <ellipse cx="224" cy="122" rx="82" ry="68" fill="#84ea86"/>
  <ellipse cx="208" cy="100" rx="16" ry="14" fill="#ffffff"/>
  <ellipse cx="252" cy="104" rx="16" ry="14" fill="#ffffff"/>
  <circle cx="210" cy="102" r="7" fill="#1b4634"/>
  <circle cx="254" cy="106" r="7" fill="#1b4634"/>
  <circle cx="194" cy="132" r="9" fill="#ffa8be" opacity="0.72"/>
  <circle cx="266" cy="138" r="9" fill="#ffa8be" opacity="0.72"/>
  <ellipse cx="206" cy="152" rx="22" ry="8" fill="#1c4d2f"/>
  <ellipse cx="232" cy="186" rx="14" ry="24" fill="#6fd972"/>
</svg>
